<svg xmlns="http://www.w3.org/2000/svg" xmlns:xlink="http://www.w3.org/1999/xlink" aria-hidden="true" role="img" class="iconify iconify--logos" width="31.88" height="32" preserveAspectRatio="xMidYMid meet" viewBox="0 0 256 257"><defs><linearGradient id="IconifyId1813088fe1fbc01fb466" x1="-.828%" x2="57.636%" y1="7.652%" y2="78.411%"><stop offset="0%" stop-color="#41D1FF"></stop><stop offset="100%" stop-color="#BD34FE"></stop></linearGradient><linearGradient id="IconifyId1813088fe1fbc01fb467" x1="43.376%" x2="50.316%" y1="2.242%" y2="89.03%"><stop offset="0%" stop-color="#FFEA83"></stop><stop offset="8.333%" stop-color="#FFDD35"></stop><stop offset="100%" stop-color="#FFA800"></stop></linearGradient></defs><path fill="url(#IconifyId1813088fe1fbc01fb466)" d="M255.153 37.938L134.897 252.97a22.023 22.023 0 0 1-40.833-14.225l16.39-117.558a22.02 22.02 0 0 0-40.832-14.224L.857 220.528a22.02 22.02 0 0 1-40.832-14.225L16.415 4.026A22.02 22.02 0 0 1 57.248 18.25L255.153 37.938z"></path><path fill="url(#IconifyId1813088fe1fbc01fb467)" d="M185.433.063L56.17 10.42a22.026 22.026 0 0 0-19.992 27.249l113.462 195.402a22.02 22.02 0 0 0 38.003-11.084L225.86 15.301a22.02 22.02 0 0 0-40.427-15.238z"></path></svg>
